grf
version=1
nRows=14
nColumns=46
inDegrees=yes
endheader
time	ground_force_1_vx	ground_force_1_vy	ground_force_1_vz	ground_force_1_px	ground_force_1_py	ground_force_1_pz	ground_moment_1_mx	ground_moment_1_my	ground_moment_1_mz	ground_force_2_vx	ground_force_2_vy	ground_force_2_vz	ground_force_2_px	ground_force_2_py	ground_force_2_pz	ground_moment_2_mx	ground_moment_2_my	ground_moment_2_mz	ground_force_3_vx	ground_force_3_vy	ground_force_3_vz	ground_force_3_px	ground_force_3_py	ground_force_3_pz	ground_moment_3_mx	ground_moment_3_my	ground_moment_3_mz	ground_force_4_vx	ground_force_4_vy	ground_force_4_vz	ground_force_4_px	ground_force_4_py	ground_force_4_pz	ground_moment_4_mx	ground_moment_4_my	ground_moment_4_mz	ground_force_5_vx	ground_force_5_vy	ground_force_5_vz	ground_force_5_px	ground_force_5_py	ground_force_5_pz	ground_moment_5_mx	ground_moment_5_my	ground_moment_5_mz
0.000000	0.000000	0.000000	0.000000	0.000000	0.000000	0.000000	0.000000	0.000000	0.000000	0.000000	0.000000	0.000000	0.000000	0.000000	0.000000	0.000000	0.000000	0.000000	0.000000	0.000000	0.000000	0.000000	0.000000	0.000000	0.000000	0.000000	0.000000	2.561322	512.734976	-57.033316	0.200007	0.000000	-1.069696	-0.000000	5.161463	0.000000	-1.498018	531.479166	53.829730	0.210266	0.000000	-1.397590	-0.000000	-4.492022	-0.000000
0.000500	0.000000	0.000000	0.000000	0.000000	0.000000	0.000000	0.000000	0.000000	0.000000	0.000000	0.000000	0.000000	0.000000	0.000000	0.000000	0.000000	0.000000	0.000000	0.000000	0.000000	0.000000	0.000000	0.000000	0.000000	0.000000	0.000000	0.000000	2.588244	512.724073	-57.010938	0.200009	0.000000	-1.069704	-0.000000	5.165647	0.000000	-1.473929	531.367207	53.813311	0.210270	0.000000	-1.397576	-0.000000	-4.498887	-0.000000
0.001000	0.000000	0.000000	0.000000	0.000000	0.000000	0.000000	0.000000	0.000000	0.000000	0.000000	0.000000	0.000000	0.000000	0.000000	0.000000	0.000000	0.000000	0.000000	0.000000	0.000000	0.000000	0.000000	0.000000	0.000000	0.000000	0.000000	0.000000	2.615407	512.712655	-56.988268	0.200011	0.000000	-1.069711	-0.000000	5.169829	0.000000	-1.450184	531.256357	53.797242	0.210273	0.000000	-1.397562	-0.000000	-4.505687	-0.000000
0.001500	0.000000	0.000000	0.000000	0.000000	0.000000	0.000000	0.000000	0.000000	0.000000	0.000000	0.000000	0.000000	0.000000	0.000000	0.000000	0.000000	0.000000	0.000000	0.000000	0.000000	0.000000	0.000000	0.000000	0.000000	0.000000	0.000000	0.000000	2.642719	512.700761	-56.965377	0.200012	0.000000	-1.069719	-0.000000	5.173995	0.000000	-1.426871	531.146952	53.781562	0.210275	0.000000	-1.397549	-0.000000	-4.512401	-0.000000
0.002000	0.000000	0.000000	0.000000	0.000000	0.000000	0.000000	0.000000	0.000000	0.000000	0.000000	0.000000	0.000000	0.000000	0.000000	0.000000	0.000000	0.000000	0.000000	0.000000	0.000000	0.000000	0.000000	0.000000	0.000000	0.000000	0.000000	0.000000	2.670092	512.688414	-56.942328	0.200014	0.000000	-1.069726	-0.000000	5.178129	0.000000	-1.404078	531.039304	53.766301	0.210278	0.000000	-1.397536	-0.000000	-4.519008	-0.000000
0.002500	0.000000	0.000000	0.000000	0.000000	0.000000	0.000000	0.000000	0.000000	0.000000	0.000000	0.000000	0.000000	0.000000	0.000000	0.000000	0.000000	0.000000	0.000000	0.000000	0.000000	0.000000	0.000000	0.000000	0.000000	0.000000	0.000000	0.000000	2.697444	512.675622	-56.919186	0.200015	0.000000	-1.069733	-0.000000	5.182216	0.000000	-1.381890	530.933693	53.751481	0.210281	0.000000	-1.397523	-0.000000	-4.525489	-0.000000
0.003000	0.000000	0.000000	0.000000	0.000000	0.000000	0.000000	0.000000	0.000000	0.000000	0.000000	0.000000	0.000000	0.000000	0.000000	0.000000	0.000000	0.000000	0.000000	0.000000	0.000000	0.000000	0.000000	0.000000	0.000000	0.000000	0.000000	0.000000	2.724705	512.662377	-56.896013	0.200016	0.000000	-1.069740	-0.000000	5.186244	0.000000	-1.360385	530.830362	53.737119	0.210283	0.000000	-1.397511	-0.000000	-4.531824	-0.000000
0.003500	0.000000	0.000000	0.000000	0.000000	0.000000	0.000000	0.000000	0.000000	0.000000	0.000000	0.000000	0.000000	0.000000	0.000000	0.000000	0.000000	0.000000	0.000000	0.000000	0.000000	0.000000	0.000000	0.000000	0.000000	0.000000	0.000000	0.000000	2.751812	512.648661	-56.872874	0.200018	0.000000	-1.069748	-0.000000	5.190199	0.000000	-1.339636	530.729515	53.723224	0.210285	0.000000	-1.397500	-0.000000	-4.537996	-0.000000
0.004000	0.000000	0.000000	0.000000	0.000000	0.000000	0.000000	0.000000	0.000000	0.000000	0.000000	0.000000	0.000000	0.000000	0.000000	0.000000	0.000000	0.000000	0.000000	0.000000	0.000000	0.000000	0.000000	0.000000	0.000000	0.000000	0.000000	0.000000	2.778707	512.634460	-56.849832	0.200019	0.000000	-1.069755	-0.000000	5.194071	0.000000	-1.319705	530.631306	53.709799	0.210287	0.000000	-1.397488	-0.000000	-4.543990	-0.000000
0.004500	0.000000	0.000000	0.000000	0.000000	0.000000	0.000000	0.000000	0.000000	0.000000	0.000000	0.000000	0.000000	0.000000	0.000000	0.000000	0.000000	0.000000	0.000000	0.000000	0.000000	0.000000	0.000000	0.000000	0.000000	0.000000	0.000000	0.000000	2.805335	512.619762	-56.826950	0.200020	0.000000	-1.069762	-0.000000	5.197849	0.000000	-1.300641	530.535839	53.696839	0.210289	0.000000	-1.397478	-0.000000	-4.549791	-0.000000
0.005000	0.000000	0.000000	0.000000	0.000000	0.000000	0.000000	0.000000	0.000000	0.000000	0.000000	0.000000	0.000000	0.000000	0.000000	0.000000	0.000000	0.000000	0.000000	0.000000	0.000000	0.000000	0.000000	0.000000	0.000000	0.000000	0.000000	0.000000	2.831651	512.604570	-56.804283	0.200021	0.000000	-1.069769	-0.000000	5.201525	0.000000	-1.282482	530.443175	53.684342	0.210291	0.000000	-1.397467	-0.000000	-4.555391	-0.000000
0.005500	0.000000	0.000000	0.000000	0.000000	0.000000	0.000000	0.000000	0.000000	0.000000	0.000000	0.000000	0.000000	0.000000	0.000000	0.000000	0.000000	0.000000	0.000000	0.000000	0.000000	0.000000	0.000000	0.000000	0.000000	0.000000	0.000000	0.000000	2.857611	512.588899	-56.781879	0.200022	0.000000	-1.069776	-0.000000	5.205090	0.000000	-1.265247	530.353345	53.672304	0.210292	0.000000	-1.397457	-0.000000	-4.560778	-0.000000
0.006000	0.000000	0.000000	0.000000	0.000000	0.000000	0.000000	0.000000	0.000000	0.000000	0.000000	0.000000	0.000000	0.000000	0.000000	0.000000	0.000000	0.000000	0.000000	0.000000	0.000000	0.000000	0.000000	0.000000	0.000000	0.000000	0.000000	0.000000	2.883181	512.572782	-56.759780	0.200023	0.000000	-1.069784	-0.000000	5.208541	0.000000	-1.248948	530.266360	53.660718	0.210293	0.000000	-1.397447	-0.000000	-4.565947	-0.000000
0.006500	0.000000	0.000000	0.000000	0.000000	0.000000	0.000000	0.000000	0.000000	0.000000	0.000000	0.000000	0.000000	0.000000	0.000000	0.000000	0.000000	0.000000	0.000000	0.000000	0.000000	0.000000	0.000000	0.000000	0.000000	0.000000	0.000000	0.000000	2.908326	512.556261	-56.738017	0.200024	0.000000	-1.069791	-0.000000	5.211873	0.000000	-1.233586	530.182218	53.649580	0.210294	0.000000	-1.397438	-0.000000	-4.570893	-0.000000
